HIERARCHY
ROOT Pelvis
{
	OFFSET 0.000000 0.000000 0.000000
	CHANNELS 6 Xposition Yposition Zposition Xrotation Yrotation Zrotation
	JOINT LeftUpLeg_virtual
	{
		OFFSET 0.000000 0.000000 0.000000
		CHANNELS 3 Xrotation Yrotation Zrotation
		JOINT LeftUpLeg
		{
			OFFSET 18.735201 -5.666702 -4.541200
			CHANNELS 3 Xrotation Yrotation Zrotation
			JOINT LeftLeg
			{
				OFFSET -0.021200 -31.938179 0.493100
				CHANNELS 3 Xrotation Yrotation Zrotation
				JOINT LeftFoot
				{
					OFFSET 0.021200 -31.938179 -4.336299
					CHANNELS 3 Xrotation Yrotation Zrotation
					JOINT LeftToeBase
					{
						OFFSET 0.943001 -26.722000 15.023500
						CHANNELS 3 Xrotation Yrotation Zrotation
						End Site
						{
							OFFSET 0 0 0
						}
					}
				}
			}
		}
	}
	JOINT RightUpLeg_virtual
	{
		OFFSET 0.000000 0.000000 0.000000
		CHANNELS 3 Xrotation Yrotation Zrotation
		JOINT RightUpLeg
		{
			OFFSET -18.735201 -5.666702 -4.541200
			CHANNELS 3 Xrotation Yrotation Zrotation
			JOINT RightLeg
			{
				OFFSET 0.018946 -31.938133 0.493100
				CHANNELS 3 Xrotation Yrotation Zrotation
				JOINT RightFoot
				{
					OFFSET -0.018946 -31.938126 -4.336299
					CHANNELS 3 Xrotation Yrotation Zrotation
					JOINT RightToeBase
					{
						OFFSET -0.943001 -26.722004 15.023500
						CHANNELS 3 Xrotation Yrotation Zrotation
						End Site
						{
							OFFSET 0 0 0
						}
					}
				}
			}
		}
	}
	JOINT Hips_virtual
	{
		OFFSET 0.000000 0.000000 0.000000
		CHANNELS 3 Xrotation Yrotation Zrotation
		JOINT Hips
		{
			OFFSET -0.000000 -0.000000 -0.000000
			CHANNELS 3 Xrotation Yrotation Zrotation
			JOINT Spine
			{
				OFFSET 0.000000 10.199997 -0.299500
				CHANNELS 3 Xrotation Yrotation Zrotation
				JOINT Spine1
				{
					OFFSET 0.000000 11.900002 -1.516600
					CHANNELS 3 Xrotation Yrotation Zrotation
					JOINT Spine2
					{
						OFFSET 0.000000 13.600006 -2.842500
						CHANNELS 3 Xrotation Yrotation Zrotation
						JOINT Neck_virtual
						{
							OFFSET 0.000000 0.000000 0.000000
							CHANNELS 3 Xrotation Yrotation Zrotation
							JOINT Neck
							{
								OFFSET 0.000000 9.624100 -2.890100
								CHANNELS 3 Xrotation Yrotation Zrotation
								JOINT Head
								{
									OFFSET 0.000000 14.068802 -1.351900
									CHANNELS 3 Xrotation Yrotation Zrotation
									End Site
									{
										OFFSET 0 0 0
									}
								}
							}
						}
						JOINT LeftShoulder_virtual
						{
							OFFSET 0.000000 0.000000 0.000000
							CHANNELS 3 Xrotation Yrotation Zrotation
							JOINT LeftShoulder
							{
								OFFSET 15.263000 10.923401 -0.547700
								CHANNELS 3 Xrotation Yrotation Zrotation
								JOINT LeftArm
								{
									OFFSET 25.438599 -2.830597 -13.032500
									CHANNELS 3 Xrotation Yrotation Zrotation
									JOINT LeftForeArm
									{
										OFFSET 29.960503 0.000000 0.000000
										CHANNELS 3 Xrotation Yrotation Zrotation
										JOINT LeftHand
										{
											OFFSET 27.849251 0.000000 0.000000
											CHANNELS 3 Xrotation Yrotation Zrotation
											End Site
											{
												OFFSET 0 0 0
											}
										}
									}
								}
							}
						}
						JOINT RightShoulder_virtual
						{
							OFFSET 0.000000 0.000000 0.000000
							CHANNELS 3 Xrotation Yrotation Zrotation
							JOINT RightShoulder
							{
								OFFSET -15.263000 10.923401 -0.547700
								CHANNELS 3 Xrotation Yrotation Zrotation
								JOINT RightArm
								{
									OFFSET -25.438599 -2.830597 -13.032500
									CHANNELS 3 Xrotation Yrotation Zrotation
									JOINT RightForeArm
									{
										OFFSET -29.960503 0.000000 0.000000
										CHANNELS 3 Xrotation Yrotation Zrotation
										JOINT RightHand
										{
											OFFSET -27.849251 0.000000 0.000000
											CHANNELS 3 Xrotation Yrotation Zrotation
											End Site
											{
												OFFSET 0 0 0
											}
										}
									}
								}
							}
						}
					}
				}
			}
		}
	}
}
MOTION
Frames: 7
Frame Time: 0.03333333
-31.830387 48.996780 271.838654 0.000000 0.000000 0.000000 -170.004611 13.711457 -177.238956 -109.045807 -6.615616 36.995658 111.280031 -1.720404 -3.704295 11.912220 -8.683419 12.239556 0.000000 0.000000 0.000000 -170.004611 13.711457 -177.238956 -116.883333 10.950149 -12.946003 115.582947 -7.541202 2.222611 11.139267 1.554935 -16.467549 0.000000 0.000000 0.000000 -170.004611 13.711457 -177.238956 0.000000 -0.000001 0.000000 16.790734 -3.841311 -8.994210 3.969197 -0.741152 -2.119500 0.000000 0.000000 0.000000 3.979509 -0.739454 -2.101521 0.364753 0.074949 0.061869 0.000000 0.000000 0.000000 3.979509 -0.739454 -2.101521 1.384114 -5.715089 -11.757634 -18.360580 -40.146223 -47.046128 -0.000007 -56.855471 -0.000010 0.000000 0.000000 0.000000 3.979509 -0.739454 -2.101521 -4.126462 21.353060 -2.025798 -21.913714 29.410771 24.489286 -179.999950 72.353601 179.999950 0.000000 0.000000 0.000000 
-31.822552 48.993340 271.837280 0.000000 0.000000 0.000000 -170.048051 13.712900 -177.241046 -109.085463 -6.651418 36.964417 111.281882 -1.723487 -3.702932 11.913482 -8.662792 12.210952 0.000000 0.000000 0.000000 -170.048051 13.712900 -177.241046 -116.916351 10.929575 -12.955821 115.579751 -7.542308 2.229283 11.145652 1.553805 -16.475851 0.000000 0.000000 0.000000 -170.048051 13.712900 -177.241046 0.000001 0.000001 -0.000000 16.778404 -3.827480 -8.978758 3.960997 -0.736599 -2.125366 0.000000 0.000000 0.000000 3.971172 -0.734086 -2.108094 0.364184 0.070162 0.071548 0.000000 0.000000 0.000000 3.971172 -0.734086 -2.108094 1.385423 -5.719501 -11.741863 -18.383989 -40.127327 -47.070566 -0.000004 -56.804849 0.000003 0.000000 0.000000 0.000000 3.971172 -0.734086 -2.108094 -4.269428 21.023298 -2.430175 -22.824066 29.584292 24.643078 179.999964 71.850469 -179.999950 0.000000 0.000000 0.000000 
-31.812572 48.996201 271.837006 0.000000 0.000000 0.000000 -170.055523 13.723392 -177.245922 -109.086946 -6.664347 36.935672 111.278808 -1.729045 -3.700185 11.915507 -8.640484 12.222111 0.000000 0.000000 0.000000 -170.055523 13.723392 -177.245922 -116.917375 10.898121 -12.964368 115.579532 -7.537355 2.235389 11.121421 1.552955 -16.496186 0.000000 0.000000 0.000000 -170.055523 13.723392 -177.245922 -0.000001 0.000000 0.000000 16.769361 -3.814943 -8.964931 3.953006 -0.732006 -2.129828 0.000000 0.000000 0.000000 3.963048 -0.728871 -2.113283 0.363427 0.065776 0.081837 0.000000 0.000000 0.000000 3.963048 -0.728871 -2.113283 1.385775 -5.726419 -11.728833 -18.401728 -40.104286 -47.092764 0.000014 -56.770777 0.000016 0.000000 0.000000 0.000000 3.963048 -0.728871 -2.113283 -4.382719 20.715691 -2.732458 -23.680768 29.747875 24.695000 179.999991 71.448075 -179.999991 0.000000 0.000000 0.000000 
-31.801632 48.997398 271.830902 0.000000 0.000000 0.000000 -170.066219 13.735203 -177.248422 -109.073920 -6.709875 36.922886 111.280140 -1.746984 -3.699160 11.915523 -8.622108 12.162506 0.000000 0.000000 0.000000 -170.066219 13.735203 -177.248422 -116.919971 10.873199 -12.974173 115.573030 -7.528643 2.242509 11.114885 1.551067 -16.514702 0.000000 0.000000 0.000000 -170.066219 13.735203 -177.248422 0.000000 0.000001 0.000000 16.760746 -3.807707 -8.950473 3.944885 -0.728170 -2.131930 0.000000 0.000000 0.000000 3.954814 -0.724027 -2.115638 0.362676 0.062547 0.092729 0.000000 0.000000 0.000000 3.954814 -0.724027 -2.115638 1.385082 -5.737305 -11.717948 -18.413628 -40.072382 -47.113057 -0.000010 -56.750864 -0.000021 0.000000 0.000000 0.000000 3.954814 -0.724027 -2.115638 -4.490359 20.422751 -2.985062 -24.488622 29.920935 24.697445 179.999909 71.109612 -179.999909 0.000000 0.000000 0.000000 
-31.798790 48.997734 271.834595 0.000000 0.000000 0.000000 -170.099168 13.740899 -177.264227 -109.113440 -6.752196 36.895828 111.282756 -1.755090 -3.697157 11.922976 -8.601786 12.135013 0.000000 0.000000 0.000000 -170.099168 13.740899 -177.264227 -116.931281 10.833724 -12.993702 115.555654 -7.528649 2.250733 11.102223 1.551109 -16.532362 0.000000 0.000000 0.000000 -170.099168 13.740899 -177.264227 0.000000 0.000000 0.000000 16.748059 -3.804958 -8.931824 3.936247 -0.726282 -2.133478 0.000000 0.000000 0.000000 3.946127 -0.719993 -2.117365 0.361500 0.059730 0.103594 0.000000 0.000000 0.000000 3.946127 -0.719993 -2.117365 1.383560 -5.752323 -11.707937 -18.417702 -40.033829 -47.130740 -0.000008 -56.739840 0.000005 0.000000 0.000000 0.000000 3.946127 -0.719993 -2.117365 -4.607654 20.141306 -3.226564 -25.254291 30.109301 24.691889 179.999950 70.810559 -179.999950 0.000000 0.000000 0.000000 
-31.792099 48.997154 271.832306 0.000000 0.000000 0.000000 -170.126721 13.742560 -177.274322 -109.134723 -6.793024 36.873193 111.284293 -1.764293 -3.693842 11.934736 -8.581013 12.097447 0.000000 0.000000 0.000000 -170.126721 13.742560 -177.274322 -116.942059 10.822948 -13.021141 115.553359 -7.512830 2.261700 11.102169 1.552981 -16.519139 0.000000 0.000000 0.000000 -170.126721 13.742560 -177.274322 -0.000002 0.000000 0.000000 16.727540 -3.802435 -8.907438 3.926854 -0.724809 -2.134531 0.000000 0.000000 0.000000 3.936738 -0.717941 -2.118535 0.359742 0.057372 0.114124 0.000000 0.000000 0.000000 3.936738 -0.717941 -2.118535 1.381809 -5.770171 -11.696676 -18.411478 -39.997321 -47.145145 0.000022 -56.729536 0.000025 0.000000 0.000000 0.000000 3.936738 -0.717941 -2.118535 -4.735795 19.871172 -3.474658 -25.983901 30.305546 24.700375 179.999950 70.544325 -179.999950 0.000000 0.000000 0.000000 
-31.785637 48.999016 271.833832 0.000000 0.000000 0.000000 -170.135081 13.756367 -177.278598 -109.134149 -6.806106 36.847914 111.288951 -1.762315 -3.689976 11.900561 -8.562206 12.102695 0.000000 0.000000 0.000000 -170.135081 13.756367 -177.278598 -116.948193 10.807304 -13.050125 115.557676 -7.489514 2.273249 11.079586 1.553697 -16.520535 0.000000 0.000000 0.000000 -170.135081 13.756367 -177.278598 0.000000 -0.000001 0.000000 16.698107 -3.799262 -8.878221 3.916779 -0.723957 -2.135149 0.000000 0.000000 0.000000 3.926628 -0.716447 -2.119209 0.356971 0.055356 0.123917 0.000000 0.000000 0.000000 3.926628 -0.716447 -2.119209 1.380640 -5.788624 -11.682023 -18.393609 -39.973419 -47.156388 0.000015 -56.711361 0.000007 0.000000 0.000000 0.000000 3.926628 -0.716447 -2.119209 -4.867073 19.612530 -3.735024 -26.682764 30.496197 24.731862 -179.999950 70.312467 179.999950 0.000000 0.000000 0.000000 
